<svg version="1.1" xmlns="http://www.w3.org/2000/svg" xmlns:xlink="http://www.w3.org/1999/xlink">
    <symbol viewBox="0 0 18 18" id="close-menu-icon">
        <g clip-path="url(#clip0)"><path d="M10.0551 9.00517L17.771 1.28931C18.0688 1.0017 18.077 0.527154 17.7894 0.229355C17.5018 -0.0684448 17.0272 -0.0767024 16.7294 0.210907C16.7232 0.216924 16.7171 0.223074 16.711 0.229355L8.99508 7.94522L1.27921 0.229311C0.981408 -0.0582986 0.506861 -0.050041 0.219251 0.247758C-0.0613304 0.538267 -0.0613304 0.998802 0.219251 1.28931L7.93512 9.00517L0.219251 16.721C-0.0734093 17.0137 -0.0734093 17.4883 0.219251 17.781C0.511956 18.0736 0.986503 18.0736 1.27921 17.781L8.99508 10.0651L16.711 17.781C17.0088 18.0686 17.4833 18.0603 17.7709 17.7625C18.0514 17.472 18.0514 17.0115 17.7709 16.721L10.0551 9.00517Z" /></g><defs><clipPath id="clip0"><rect width="18" height="18" /></clipPath></defs>
    </symbol>

    <symbol viewBox="0 0 24 24" id="header-email">
        <path d="M0 3v18h24v-18h-24zm21.518 2l-9.518 7.713-9.518-7.713h19.036zm-19.518 14v-11.817l10 8.104 10-8.104v11.817h-20z"/>
    </symbol>

    <symbol viewBox="0 0 24 24" id="header-phone">
        <path d="M18.48 22.926l-1.193.658c-6.979 3.621-19.082-17.494-12.279-21.484l1.145-.637 3.714 6.467-1.139.632c-2.067 1.245 2.76 9.707 4.879 8.545l1.162-.642 3.711 6.461zm-9.808-22.926l-1.68.975 3.714 6.466 1.681-.975-3.715-6.466zm8.613 14.997l-1.68.975 3.714 6.467 1.681-.975-3.715-6.467z"/>
    </symbol>

    <symbol viewBox="0 0 24 24" id="24h">
        <path d="M21.854 13.683l1.998.159c-.132.854-.351 1.676-.652 2.46l-1.8-.905c.2-.551.353-1.123.454-1.714zm-2.548 7.826l-1.413-1.443c-.486.356-1.006.668-1.555.933l.669 1.899c.821-.377 1.591-.844 2.299-1.389zm1.226-4.309c-.335.546-.719 1.057-1.149 1.528l1.404 1.433c.583-.627 1.099-1.316 1.539-2.058l-1.794-.903zm-20.532-5.2c0 6.627 5.375 12 12.004 12 1.081 0 2.124-.156 3.12-.424l-.665-1.894c-.787.2-1.607.318-2.455.318-5.516 0-10.003-4.486-10.003-10s4.487-10 10.003-10c2.235 0 4.293.744 5.959 1.989l-2.05 2.049 7.015 1.354-1.355-7.013-2.184 2.183c-2.036-1.598-4.595-2.562-7.385-2.562-6.629 0-12.004 5.373-12.004 12zm23.773-2.359h-2.076c.163.661.261 1.344.288 2.047l2.015.161c-.01-.755-.085-1.494-.227-2.208zm-9.005 5.359v-1.419h-2.594v-1.295l2.722-3.653h1.288v3.689h.816v1.259h-.815v1.419h-1.417zm0-2.679v-1.695l-1.263 1.695h1.263zm-7.768 2.679c0-.961.275-1.709 1.234-2.419 1.129-.836 1.99-1.165 1.99-1.939 0-.512-.308-.83-.804-.83-.69 0-.855.723-.855 1.411h-1.421c-.06-1.782.951-2.713 2.338-2.713 1.287 0 2.22.856 2.22 2.036 0 .589-.183 1.056-.576 1.469-.621.655-1.552.985-2.163 1.682h2.774v1.303h-4.737z"/>
    </symbol>

    <symbol viewBox="0 0 24 24" id="quote">
        <path d="M11 9.275c0 5.141-3.892 10.519-10 11.725l-.984-2.126c2.215-.835 4.163-3.742 4.38-5.746-2.491-.392-4.396-2.547-4.396-5.149 0-3.182 2.584-4.979 5.199-4.979 3.015 0 5.801 2.305 5.801 6.275zm13 0c0 5.141-3.892 10.519-10 11.725l-.984-2.126c2.215-.835 4.163-3.742 4.38-5.746-2.491-.392-4.396-2.547-4.396-5.149 0-3.182 2.584-4.979 5.199-4.979 3.015 0 5.801 2.305 5.801 6.275z"/>
    </symbol>

    <symbol width="21" height="38" viewBox="0 0 21 38" id="next-slider-arrow">
        <path opacity="0.7" d="M1 37L19.1165 19L1 1"  stroke-width="2" stroke-linecap="round" stroke-linejoin="round"/>
    </symbol>

    <symbol width="21" height="38" viewBox="0 0 21 38" id="prev-slider-arrow">
        <path opacity="0.7" d="M19.1165 37L1 19L19.1165 1"  stroke-width="2" stroke-linecap="round" stroke-linejoin="round"/>
    </symbol>

    <symbol viewBox="0 0 24 24" id="footer-location">
        <path d="M12 0c-4.198 0-8 3.403-8 7.602 0 4.198 3.469 9.21 8 16.398 4.531-7.188 8-12.2 8-16.398 0-4.199-3.801-7.602-8-7.602zm0 11c-1.657 0-3-1.343-3-3s1.343-3 3-3 3 1.343 3 3-1.343 3-3 3z"/>
    </symbol>

    <symbol viewBox="0 0 24 24" id="footer-location-phis">
        <path d="M12 3c2.131 0 4 1.73 4 3.702 0 2.05-1.714 4.941-4 8.561-2.286-3.62-4-6.511-4-8.561 0-1.972 1.869-3.702 4-3.702zm0-2c-3.148 0-6 2.553-6 5.702 0 3.148 2.602 6.907 6 12.298 3.398-5.391 6-9.15 6-12.298 0-3.149-2.851-5.702-6-5.702zm0 8c-1.105 0-2-.895-2-2s.895-2 2-2 2 .895 2 2-.895 2-2 2zm8 6h-3.135c-.385.641-.798 1.309-1.232 2h3.131l.5 1h-4.264l-.344.544-.289.456h.558l.858 2h-7.488l.858-2h.479l-.289-.456-.343-.544h-2.042l-1.011-1h2.42c-.435-.691-.848-1.359-1.232-2h-3.135l-4 8h24l-4-8zm-12.794 6h-3.97l1.764-3.528 1.516 1.528h1.549l-.859 2zm8.808-2h3.75l1 2h-3.892l-.858-2z"/>
    </symbol>

    <symbol viewBox="0 0 24 24" id="breadcrumbs-arrow">
        <path d="M6.028 0v6.425l5.549 5.575-5.549 5.575v6.425l11.944-12z"/>
    </symbol>

    <symbol viewBox="0 0 217 198" id="arrow-up">
        <path d="M105.16 1.38485L1.37763 105.09C0.493119 105.976 -0.00220685 107.177 4.48527e-06 108.428L8.19417e-06 193.278C-0.0048565 195.881 2.10382 197.995 4.70914 198C5.96515 198.002 7.17029 197.504 8.05745 196.615L108.5 96.2377L208.943 196.615C210.782 198.458 213.769 198.462 215.614 196.623C216.503 195.737 217.002 194.533 217 193.278L217 108.428C217.002 107.177 216.507 105.976 215.622 105.09L111.84 1.38485C110 -0.458419 107.013 -0.46196 105.168 1.37645C105.166 1.37955 105.163 1.3822 105.16 1.38485Z" />
    </symbol>

    <symbol viewBox="0 0 24 24" id="facebook">
        <path d="M9 8h-3v4h3v12h5v-12h3.642l.358-4h-4v-1.667c0-.955.192-1.333 1.115-1.333h2.885v-5h-3.808c-3.596 0-5.192 1.583-5.192 4.615v3.385z"/>
    </symbol>

    <symbol viewBox="0 0 24 24" id="twitter">
        <path d="M24 4.557c-.883.392-1.832.656-2.828.775 1.017-.609 1.798-1.574 2.165-2.724-.951.564-2.005.974-3.127 1.195-.897-.957-2.178-1.555-3.594-1.555-3.179 0-5.515 2.966-4.797 6.045-4.091-.205-7.719-2.165-10.148-5.144-1.29 2.213-.669 5.108 1.523 6.574-.806-.026-1.566-.247-2.229-.616-.054 2.281 1.581 4.415 3.949 4.89-.693.188-1.452.232-2.224.084.626 1.956 2.444 3.379 4.6 3.419-2.07 1.623-4.678 2.348-7.29 2.04 2.179 1.397 4.768 2.212 7.548 2.212 9.142 0 14.307-7.721 13.995-14.646.962-.695 1.797-1.562 2.457-2.549z"/>
    </symbol>

    <symbol viewBox="0 0 24 24" id="linkedin">
        <path d="M4.98 3.5c0 1.381-1.11 2.5-2.48 2.5s-2.48-1.119-2.48-2.5c0-1.38 1.11-2.5 2.48-2.5s2.48 1.12 2.48 2.5zm.02 4.5h-5v16h5v-16zm7.982 0h-4.968v16h4.969v-8.399c0-4.67 6.029-5.052 6.029 0v8.399h4.988v-10.131c0-7.88-8.922-7.593-11.018-3.714v-2.155z"/>
    </symbol>

    <symbol viewBox="0 0 24 24" id="instagram">
        <path d="M12 2.163c3.204 0 3.584.012 4.85.07 3.252.148 4.771 1.691 4.919 4.919.058 1.265.069 1.645.069 4.849 0 3.205-.012 3.584-.069 4.849-.149 3.225-1.664 4.771-4.919 4.919-1.266.058-1.644.07-4.85.07-3.204 0-3.584-.012-4.849-.07-3.26-.149-4.771-1.699-4.919-4.92-.058-1.265-.07-1.644-.07-4.849 0-3.204.013-3.583.07-4.849.149-3.227 1.664-4.771 4.919-4.919 1.266-.057 1.645-.069 4.849-.069zm0-2.163c-3.259 0-3.667.014-4.947.072-4.358.2-6.78 2.618-6.98 6.98-.059 1.281-.073 1.689-.073 4.948 0 3.259.014 3.668.072 4.948.2 4.358 2.618 6.78 6.98 6.98 1.281.058 1.689.072 4.948.072 3.259 0 3.668-.014 4.948-.072 4.354-.2 6.782-2.618 6.979-6.98.059-1.28.073-1.689.073-4.948 0-3.259-.014-3.667-.072-4.947-.196-4.354-2.617-6.78-6.979-6.98-1.281-.059-1.69-.073-4.949-.073zm0 5.838c-3.403 0-6.162 2.759-6.162 6.162s2.759 6.163 6.162 6.163 6.162-2.759 6.162-6.163c0-3.403-2.759-6.162-6.162-6.162zm0 10.162c-2.209 0-4-1.79-4-4 0-2.209 1.791-4 4-4s4 1.791 4 4c0 2.21-1.791 4-4 4zm6.406-11.845c-.796 0-1.441.645-1.441 1.44s.645 1.44 1.441 1.44c.795 0 1.439-.645 1.439-1.44s-.644-1.44-1.439-1.44z"/>
    </symbol>

    <symbol viewBox="0 0 36 36" id="close-modal">
        <path d="M18 0C8.07497 0 0 8.07497 0 18C0 27.925 8.07497 36 18 36C27.925 36 36 27.925 36 18C36 8.07497 27.925 0 18 0ZM25.2802 23.1591C25.5731 23.452 25.5731 23.9269 25.2802 24.2198L24.2198 25.2802C23.9269 25.573 23.4521 25.573 23.1591 25.2802L18 20.1211L12.8409 25.2802C12.5479 25.5731 12.0731 25.5731 11.7802 25.2802L10.7198 24.2198C10.4268 23.9269 10.4268 23.452 10.7198 23.1591L15.8789 17.9999L10.7198 12.8408C10.4268 12.548 10.4268 12.0731 10.7198 11.7802L11.7802 10.7197C12.0731 10.4269 12.5479 10.4269 12.8409 10.7197L18 15.8788L23.1591 10.7197C23.4521 10.4269 23.9269 10.4269 24.2198 10.7197L25.2802 11.7802C25.5732 12.073 25.5732 12.5479 25.2802 12.8408L20.1211 17.9999L25.2802 23.1591Z" />
    </symbol>

    <symbol viewBox="0 0 195 184" id="logo1">
        <path d="M125.52 184L125.52 128.742L171.569 156.371L125.52 184Z" fill="white"/>
        <path d="M79.4723 156.371L79.4723 101.113L125.521 128.742L79.4723 156.371Z" fill="white"/>
        <path d="M171.569 101.113L171.569 156.371L125.521 128.742L171.569 101.113Z" fill="white"/>
        <path d="M125.52 128.742L125.52 184L79.4722 156.371L125.52 128.742Z" fill="white"/>
        <path d="M171.806 39.8792L123.952 67.5081L124.855 13.8147L171.806 39.8792Z" fill="white"/>
        <path d="M170.903 93.5724L123.048 121.201L123.952 67.5079L170.903 93.5724Z" fill="white"/>
        <path d="M77.0001 41.4435L124.855 13.8146L123.952 67.5079L77.0001 41.4435Z" fill="white"/>
        <path d="M123.952 67.5081L171.806 39.8791L170.903 93.5725L123.952 67.5081Z" fill="white"/>
        <path d="M23.7389 69.4577L71.0881 97.9442L23.6747 123.159L23.7389 69.4577Z" fill="white"/>
        <path d="M71.1517 44.2433L118.501 72.7298L71.0876 97.9443L71.1517 44.2433Z" fill="white"/>
        <path d="M71.0238 151.645L23.6746 123.159L71.088 97.944L71.0238 151.645Z" fill="white"/>
        <path d="M71.088 97.9442L23.7388 69.4577L71.1522 44.2432L71.088 97.9442Z" fill="white"/>
    </symbol>

</svg>