<svg width="195" height="186" fill="none" xmlns="http://www.w3.org/2000/svg"><path d="M125.048 185.887v-55.258l46.048 27.629-46.048 27.629zM79 158.258V103l46.048 27.629L79 158.258z" fill="#fff"/><path d="M171.097 103v55.258l-46.049-27.629L171.097 103zm-46.049 27.629v55.258L79 158.258l46.048-27.629z" fill="#fff"/><path d="M171.491 39.88l-47.855 27.628.904-53.693 46.951 26.064zm-.903 53.692l-47.855 27.629.903-53.693 46.952 26.064zM76.685 41.444l47.855-27.63-.904 53.694-46.951-26.064z" fill="#ED1B24"/><path d="M123.637 67.508l47.854-27.629-.903 53.694-46.951-26.065z" fill="#ED1B24"/><path d="M23.067 71.854l47.825 27.68-46.98 26.015-.845-53.695z" fill="#fff"/><path d="M70.046 45.84l47.825 27.68-46.98 26.014-.845-53.694zm1.692 107.389l-47.825-27.681 46.979-26.014.846 53.695z" fill="#fff"/><path d="M70.892 99.534l-47.825-27.68 46.98-26.014.845 53.694z" fill="#fff"/></svg>