<svg width="195" height="186" viewBox="0 0 195 186" fill="none" xmlns="http://www.w3.org/2000/svg">
<path d="M125.048 185.887L125.048 130.629L171.096 158.258L125.048 185.887Z" fill="white"/>
<path d="M79.0001 158.258L79.0001 103L125.048 130.629L79.0001 158.258Z" fill="white"/>
<path d="M171.097 103L171.097 158.258L125.048 130.629L171.097 103Z" fill="white"/>
<path d="M125.048 130.629L125.048 185.887L79 158.258L125.048 130.629Z" fill="white"/>
<path d="M171.491 39.8792L123.636 67.5081L124.54 13.8147L171.491 39.8792Z" fill="#ED1B24"/>
<path d="M170.588 93.5724L122.733 121.201L123.636 67.5079L170.588 93.5724Z" fill="#ED1B24"/>
<path d="M76.6849 41.4435L124.54 13.8146L123.636 67.5079L76.6849 41.4435Z" fill="#ED1B24"/>
<path d="M123.637 67.5081L171.491 39.8791L170.588 93.5725L123.637 67.5081Z" fill="#ED1B24"/>
<path d="M23.0668 71.8543L70.8919 99.5344L23.9126 125.549L23.0668 71.8543Z" fill="white"/>
<path d="M70.0458 45.8401L117.871 73.5202L70.8916 99.5345L70.0458 45.8401Z" fill="white"/>
<path d="M71.7376 153.229L23.9125 125.548L70.8918 99.5343L71.7376 153.229Z" fill="white"/>
<path d="M70.8919 99.5344L23.0668 71.8543L70.0461 45.84L70.8919 99.5344Z" fill="white"/>
</svg>
